<svg version="1.1" id="Layer_1" xmlns="http://www.w3.org/2000/svg" xmlns:xlink="http://www.w3.org/1999/xlink" x="0px" y="0px"
	 viewBox="0 0 480 480" style="enable-background:new 0 0 480 480;" xml:space="preserve">
<g transform="translate(0 -540.36)">
			<path d="M389.766,946.86L389.766,946.86c36.804-37.7,59.506-89.1,59.506-145.7c0-111.4-88.41-202.6-199.222-208v-32.8h21.002
				c5.501,0,10.001-4.5,10.001-10s-4.5-10-10.001-10h-62.007c-5.501,0-10.001,4.5-10.001,10s4.5,10,10.001,10h21.002v32.7
				c-52.306,2.3-101.011,23.7-138.115,60.7c-39.404,39.3-61.107,91.6-61.107,147.4c0,56.7,22.702,108.2,59.406,145.9l-56.506,56.3
				c-3.9,3.9-3.9,10.2,0,14.1c2,2,4.5,2.9,7.101,2.9s5.101-1,7.101-2.9l57.006-56.8c36.404,30.9,83.409,49.5,134.715,49.5
				c51.606,0,98.911-18.7,135.415-49.7l57.106,56.9c2,1.9,4.5,2.9,7.101,2.9s5.101-1,7.101-2.9c3.9-3.9,3.9-10.2,0-14.1
				L389.766,946.86z M368.964,939.36c-0.2,0.1-0.3,0.3-0.5,0.4c0,0,0,0-0.1,0.1c-33.804,31.2-79.109,50.4-128.714,50.4
				c-104.111-0.1-188.82-84.9-188.82-189.1v0c0-103.8,84.709-188.3,188.82-188.3c104.511,0,189.621,84.5,189.621,188.3
				C429.271,855.66,406.068,904.76,368.964,939.36z"/>
			<path d="M89.934,606.06c-3.9-3.9-10.201-3.9-14.102,0l-62.907,62.7c-3.9,3.9-3.9,10.2,0,14.1c2,1.9,4.5,2.9,7.101,2.9
				s5.101-1,7.001-2.9l62.907-62.7C93.834,616.26,93.834,609.96,89.934,606.06z"/>
			<path d="M467.075,668.76l-62.907-62.7c-3.9-3.9-10.201-3.9-14.102,0c-3.9,3.9-3.9,10.2,0,14.1l62.907,62.7
				c2,1.9,4.5,2.9,7.101,2.9s5.101-1,7.001-2.9C470.975,678.96,470.975,672.66,467.075,668.76z"/>
			<path d="M375.965,802.06H250.051v-125.6c0-5.5-4.5-10-10.001-10s-10.001,4.5-10.001,10v135.6c0,5.5,4.5,10,10.001,10h135.915v0
				c5.601,0,10.001-4.5,10.001-10S381.465,802.06,375.965,802.06z"/>
</g>
</svg>
